{"title":"Anna M French DvdRiP Tickets","uid":11037679,"size":733972480,"categoryP":"other","categoryS":"other","magnet":"?xt=urn:btih:5e1360f11c8c8bbecee55019f9c7af07e503c926&amp;dn=Anna+M+French+DvdRiP+Tickets&amp;tr=udp%3A%2F%2Ftracker.openbittorrent.com%3A80&amp;tr=udp%3A%2F%2Fopen.demonii.com%3A1337&amp;tr=udp%3A%2F%2Ftracker.coppersurfer.tk%3A6969&amp;tr=udp%3A%2F%2Fexodus.desync.com%3A6969","seeders":0,"leechers":1,"uploader":"hermina14","files":-1,"time":1410812625,"description":" &lt;a href=&quot;http://bayimg.com/kAaMLaAGG&quot; rel=&quot;nofollow&quot; target=&quot;_NEW&quot;&gt;http://bayimg.com/kAaMLaAGG&lt;/a&gt;\n\n      Complete name : Anna_M.FRENCH.DVDRiP.XviD-TICKETS.avi\n      Format : AVI\n      Format/Info : Audio Video Interleave\n      File size : 700 MiB\n      Duration : 1h 41mn\n      Overall bit rate : 961 Kbps\n      Writing application : VirtualDubMod 1.5.10.1 Fr | www.trad-fr.com ||  (build 2439/release)\n      Writing library : VirtualDubMod build 2439/release\n   Video #0\n      ID : 0\n      Format : MPEG-4 Visual\n      Format profile : AdvancedSimple@L5\n      Format settings, BVOP : Yes\n      Format settings, QPel : No\n      Format settings, GMC : No warppoints\n      Format settings, Matrix : Default (MPEG)\n      Codec ID : XVID\n      Codec ID/Hint : XviD\n      Duration : 1h 41mn\n      Bit rate : 817 Kbps\n      Width : 576 pixels\n      Height : 240 pixels\n      Display aspect ratio : 2.40:1\n      Frame rate : 25.000 fps\n      Resolution : 24 bits\n      Colorimetry : 4:2:0\n      Scan type : Progressive\n      Bits/(Pixel*Frame) : 0.236\n      Stream size : 595 MiB (85%)\n      Writing library : XviD 1.1.0 (UTC 2005-11-22)\n   Audio #1\n      ID : 1\n      Format : MPEG Audio\n      Format version : Version 1\n      Format profile : Layer 3\n      Codec ID : 55\n      Codec ID/Hint : MP3\n      Duration : 1h 41mn\n      Bit rate mode : Variable\n      Bit rate : 131 Kbps\n      Nominal bit rate : 128 Kbps\n      Channel(s) : 2 channels\n      Sampling rate : 48.0 KHz\n      Resolution : 16 bits\n      Stream size : 95.2 MiB (14%)\n      Alignment : Aligned on interleaves\n      Interleave, duration : 24 ms (0.60 video frame)\n      Interleave, preload duration : 141 ms\n      Writing library : LAME3.90.\n      Encoding settings : -m j -V 4 -q 2 -lowpass 17.6 --abr 128\n &lt;a href=&quot;\nhttps://en.wikipedia.org/wiki/Anna_M.&quot; rel=&quot;nofollow&quot; target=&quot;_NEW&quot;&gt;\nhttps://en.wikipedia.org/wiki/Anna_M.&lt;/a&gt;\n","torrent":{"xt":"urn:btih:5e1360f11c8c8bbecee55019f9c7af07e503c926","amp;dn":"Anna+M+French+DvdRiP+Tickets","amp;tr":["udp%3A%2F%2Ftracker.openbittorrent.com%3A80","udp%3A%2F%2Fopen.demonii.com%3A1337","udp%3A%2F%2Ftracker.coppersurfer.tk%3A6969","udp%3A%2F%2Fexodus.desync.com%3A6969"],"infoHash":"5e1360f11c8c8bbecee55019f9c7af07e503c926","infoHashBuffer":{"type":"Buffer","data":[94,19,96,241,28,140,139,190,206,229,80,25,249,199,175,7,229,3,201,38]},"announce":[],"urlList":[]}}